<?xml version="1.0" standalone="no"?>
<!DOCTYPE svg PUBLIC "-//W3C//DTD SVG 1.1//EN"
  "http://www.w3.org/Graphics/SVG/1.1/DTD/svg11.dtd">
<svg width="408mm" height="204.99999999999994mm" viewBox="-150 -122.99999999999997 408 204.99999999999994" xmlns="http://www.w3.org/2000/svg" version="1.1">
	<title>svgOutput</title>
	<desc>made with tinkercad</desc>
<path d="M 257 -82.12499999999999 L 254 -82.12499999999999 L 254 -65.53600311279295 L 254 -61.874999999999986 L 257 -61.874999999999986 L 257 -41.62499999999999 L 254 -41.62499999999999 L 254 -24.999999999999993 L 232.625 -24.999999999999993 L 232.625 -21.999999999999996 L 212.375 -21.999999999999996 L 212.375 -24.999999999999993 L 196.60800170898438 -24.999999999999993 L 192.125 -24.999999999999993 L 192.125 -21.999999999999996 L 171.875 -21.999999999999996 L 171.875 -24.999999999999993 L 163.83999633789062 -24.999999999999993 L 151.625 -24.999999999999993 L 151.625 -21.999999999999996 L 131.375 -21.999999999999996 L 131.375 -24.999999999999993 L 131.07200622558594 -24.999999999999993 L 110 -24.999999999999993 L 110 -32.76800155639648 L 110 -41.62499999999999 L 107 -41.62499999999999 L 107 -61.874999999999986 L 110 -61.874999999999986 L 110 -65.53600311279295 L 110 -82.12499999999999 L 107 -82.12499999999999 L 107 -102.37499999999997 L 110 -102.37499999999997 L 110 -118.99999999999997 L 131.07200622558594 -118.99999999999997 L 131.375 -118.99999999999997 L 131.375 -121.99999999999997 L 151.625 -121.99999999999997 L 151.625 -118.99999999999997 L 171.4980010986328 -118.99999999999997 L 171.875 -118.99999999999997 L 171.875 -121.99999999999997 L 192.125 -121.99999999999997 L 192.125 -118.99999999999997 L 192.5030059814453 -118.99999999999997 L 196.60800170898438 -118.99999999999997 L 212.375 -118.99999999999997 L 212.375 -121.99999999999997 L 232.625 -121.99999999999997 L 232.625 -118.99999999999997 L 254 -118.99999999999997 L 254 -102.37499999999997 L 257 -102.37499999999997 L 257 -82.12499999999999 M 254 -15.999999999999996 L 254 1.1102230246251565e-16 L 254 0.625 L 257 0.625 L 257 20.874999999999996 L 254 20.874999999999996 L 254 41.12499999999999 L 257 41.12499999999999 L 257 61.374999999999986 L 254 61.374999999999986 L 254 77.99999999999999 L 232.625 77.99999999999999 L 232.625 80.99999999999999 L 212.375 80.99999999999999 L 212.375 77.99999999999999 L 196.60800170898438 77.99999999999999 L 192.125 77.99999999999999 L 192.125 80.99999999999999 L 171.875 80.99999999999999 L 171.875 77.99999999999999 L 151.625 77.99999999999999 L 151.625 80.99999999999999 L 131.375 80.99999999999999 L 131.375 77.99999999999999 L 131.07200622558594 77.99999999999999 L 110 77.99999999999999 L 110 65.53600311279295 L 110 61.374999999999986 L 107 61.374999999999986 L 107 41.12499999999999 L 110 41.12499999999999 L 110 32.76800155639648 L 110 20.874999999999996 L 107 20.874999999999996 L 107 0.625 L 110 0.625 L 110 1.1102230246251565e-16 L 110 -15.999999999999996 L 131.07200622558594 -15.999999999999996 L 131.375 -15.999999999999996 L 131.375 -18.999999999999996 L 151.625 -18.999999999999996 L 151.625 -15.999999999999996 L 163.83999633789062 -15.999999999999996 L 171.875 -15.999999999999996 L 171.875 -18.999999999999996 L 192.125 -18.999999999999996 L 192.125 -15.999999999999996 L 196.60800170898438 -15.999999999999996 L 212.375 -15.999999999999996 L 212.375 -18.999999999999996 L 232.625 -18.999999999999996 L 232.625 -15.999999999999996 L 254 -15.999999999999996 M 101 -121.99999999999997 L 101 -118.99999999999997 L 101 -102.37499999999997 L 104 -102.37499999999997 L 104 -82.12499999999999 L 101 -82.12499999999999 L 101 -65.53600311279295 L 101 -61.874999999999986 L 104 -61.874999999999986 L 104 -41.62499999999999 L 101 -41.62499999999999 L 101 -32.76800155639648 L 101 -24.999999999999993 L 101 -21.999999999999996 L 84.375 -21.999999999999996 L 84.375 -24.999999999999993 L 65.53600311279297 -24.999999999999993 L 64.125 -24.999999999999993 L 64.125 -21.999999999999996 L 43.875 -21.999999999999996 L 43.875 -24.999999999999993 L 32.768001556396484 -24.999999999999993 L 23.625 -24.999999999999993 L 23.625 -21.999999999999996 L 7 -21.999999999999996 L 7 -24.999999999999993 L 7 -32.76800155639648 L 7 -41.62499999999999 L 4 -41.62499999999999 L 4 -61.874999999999986 L 7 -61.874999999999986 L 7 -65.53600311279295 L 7 -82.12499999999999 L 4 -82.12499999999999 L 4 -102.37499999999997 L 7 -102.37499999999997 L 7 -121.99999999999997 L 23.625 -121.99999999999997 L 23.625 -118.99999999999997 L 43.875 -118.99999999999997 L 43.875 -121.99999999999997 L 64.125 -121.99999999999997 L 64.125 -118.99999999999997 L 65.53600311279297 -118.99999999999997 L 84.375 -118.99999999999997 L 84.375 -121.99999999999997 L 101 -121.99999999999997 M 101 -18.999999999999996 L 101 -15.999999999999996 L 101 1.1102230246251565e-16 L 101 0.625 L 104 0.625 L 104 20.874999999999996 L 101 20.874999999999996 L 101 32.76800155639648 L 101 41.12499999999999 L 104 41.12499999999999 L 104 61.374999999999986 L 101 61.374999999999986 L 101 65.53600311279295 L 101 77.99999999999999 L 101 80.99999999999999 L 84.375 80.99999999999999 L 84.375 77.99999999999999 L 65.53600311279297 77.99999999999999 L 64.125 77.99999999999999 L 64.125 80.99999999999999 L 43.875 80.99999999999999 L 43.875 77.99999999999999 L 23.625 77.99999999999999 L 23.625 80.99999999999999 L 7 80.99999999999999 L 7 77.99999999999999 L 7 65.53600311279295 L 7 61.374999999999986 L 4 61.374999999999986 L 4 41.12499999999999 L 7 41.12499999999999 L 7 32.76800155639648 L 7 20.874999999999996 L 4 20.874999999999996 L 4 0.625 L 7 0.625 L 7 1.1102230246251565e-16 L 7 -18.999999999999996 L 23.625 -18.999999999999996 L 23.625 -15.999999999999996 L 32.768001556396484 -15.999999999999996 L 43.875 -15.999999999999996 L 43.875 -18.999999999999996 L 64.125 -18.999999999999996 L 64.125 -15.999999999999996 L 65.53600311279297 -15.999999999999996 L 84.375 -15.999999999999996 L 84.375 -18.999999999999996 L 101 -18.999999999999996 M 1 -102.37499999999997 L 0 -102.37499999999997 L -2 -102.37499999999997 L -2 -82.12499999999999 L 0 -82.12499999999999 L 1 -82.12499999999999 L 1 -65.53600311279295 L 1 -61.874999999999986 L 0 -61.874999999999986 L -2 -61.874999999999986 L -2 -41.62499999999999 L 0 -41.62499999999999 L 1 -41.62499999999999 L 1 -32.76800155639648 L 1 -21.999999999999996 L 0 -21.999999999999996 L -23.375 -21.999999999999996 L -23.375 -24.999999999999993 L -43.625 -24.999999999999993 L -43.625 -21.999999999999996 L -63.875 -21.999999999999996 L -63.875 -24.999999999999993 L -65.53600311279297 -24.999999999999993 L -84.125 -24.999999999999993 L -84.125 -21.999999999999996 L -99.00299835205078 -21.999999999999996 L -104.375 -21.999999999999996 L -104.375 -24.999999999999993 L -124.625 -24.999999999999993 L -124.625 -21.999999999999996 L -131.07200622558594 -21.999999999999996 L -146 -21.999999999999996 L -149 -21.999999999999996 L -149 -41.62499999999999 L -146 -41.62499999999999 L -146 -61.874999999999986 L -149 -61.874999999999986 L -149 -82.12499999999999 L -146 -82.12499999999999 L -146 -102.37499999999997 L -149 -102.37499999999997 L -149 -121.99999999999997 L -146 -121.99999999999997 L -131.07200622558594 -121.99999999999997 L -124.625 -121.99999999999997 L -124.625 -118.99999999999997 L -104.375 -118.99999999999997 L -104.375 -121.99999999999997 L -99.00299835205078 -121.99999999999997 L -84.125 -121.99999999999997 L -84.125 -118.99999999999997 L -65.53600311279297 -118.99999999999997 L -63.875 -118.99999999999997 L -63.875 -121.99999999999997 L -43.625 -121.99999999999997 L -43.625 -118.99999999999997 L -23.375 -118.99999999999997 L -23.375 -121.99999999999997 L 0 -121.99999999999997 L 1 -121.99999999999997 L 1 -102.37499999999997 M 1 0.625 L 0 0.625 L -2 0.625 L -2 20.874999999999996 L 0 20.874999999999996 L 1 20.874999999999996 L 1 32.76800155639648 L 1 41.12499999999999 L 0 41.12499999999999 L -2 41.12499999999999 L -2 61.374999999999986 L 0 61.374999999999986 L 1 61.374999999999986 L 1 65.53600311279295 L 1 80.99999999999999 L 0 80.99999999999999 L -2 80.99999999999999 L -10.998000144958496 80.99999999999999 L -23.003000259399414 80.99999999999999 L -23.375 80.99999999999999 L -23.375 77.99999999999999 L -43.625 77.99999999999999 L -43.625 80.99999999999999 L -63.875 80.99999999999999 L -63.875 77.99999999999999 L -84.125 77.99999999999999 L -84.125 80.99999999999999 L -104.375 80.99999999999999 L -104.375 77.99999999999999 L -124.625 77.99999999999999 L -124.625 80.99999999999999 L -131.07200622558594 80.99999999999999 L -146 80.99999999999999 L -149 80.99999999999999 L -149 61.374999999999986 L -146 61.374999999999986 L -146 41.12499999999999 L -149 41.12499999999999 L -149 20.874999999999996 L -146 20.874999999999996 L -146 0.625 L -149 0.625 L -149 1.1102230246251565e-16 L -149 -18.999999999999996 L -146 -18.999999999999996 L -131.07200622558594 -18.999999999999996 L -124.625 -18.999999999999996 L -124.625 -15.999999999999996 L -104.375 -15.999999999999996 L -104.375 -18.999999999999996 L -84.125 -18.999999999999996 L -84.125 -15.999999999999996 L -65.53600311279297 -15.999999999999996 L -63.875 -15.999999999999996 L -63.875 -18.999999999999996 L -43.625 -18.999999999999996 L -43.625 -15.999999999999996 L -23.375 -15.999999999999996 L -23.375 -18.999999999999996 L 0 -18.999999999999996 L 1 -18.999999999999996 L 1 1.1102230246251565e-16 L 1 0.625 M 192.125 -72.76625061035155 L 191.09500122070312 -75.25099945068358 L 189.42599487304688 -77.42600250244139 L 187.25100708007812 -79.09500122070311 L 184.71800231933594 -80.14499664306639 L 182 -80.50299835205077 L 180.2239990234375 -80.26907348632811 L 179.28199768066406 -80.14499664306639 L 176.74899291992188 -79.09500122070311 L 174.57400512695312 -77.42600250244139 L 172.90499877929688 -75.25099945068358 L 171.85499572753906 -72.71800231933592 L 171.4980010986328 -69.99999999999999 L 171.85499572753906 -67.28199768066405 L 172.57876586914062 -65.53600311279295 L 172.90499877929688 -64.74900054931639 L 174.57400512695312 -62.574001312255845 L 176.74899291992188 -60.90499877929686 L 179.28199768066406 -59.854999542236314 L 182 -59.4980010986328 L 184.71800231933594 -59.854999542236314 L 187.25100708007812 -60.90499877929686 L 189.42599487304688 -62.574001312255845 L 191.09500122070312 -64.74900054931639 L 191.42123413085938 -65.53600311279295 L 192.125 -67.23374938964842 L 192.14500427246094 -67.28199768066405 L 192.5030059814453 -69.99999999999999 L 192.14500427246094 -72.71800231933592 L 192.125 -72.76625061035155 M 52.7400016784668 -102.76000213623044 L 52.07325744628906 -102.37499999999997 L 51.83599853515625 -102.23799896240232 L 51.125999450683594 -101.47299957275388 L 50.67300033569336 -100.53199768066403 L 50.516998291015625 -99.49999999999997 L 50.67300033569336 -98.46800231933591 L 50.751949310302734 -98.30400085449216 L 51.125999450683594 -97.52700042724607 L 51.83599853515625 -96.76200103759763 L 52.7400016784668 -96.2399978637695 L 53.757999420166016 -96.00700378417966 L 54.79899978637695 -96.08499908447263 L 55.770999908447266 -96.46700286865232 L 56.58700180053711 -97.11799621582028 L 57.17499923706055 -97.98000335693357 L 57.27499008178711 -98.30400085449216 L 57.483001708984375 -98.97799682617185 L 57.483001708984375 -100.0220031738281 L 57.17499923706055 -101.01999664306638 L 56.58700180053711 -101.88200378417966 L 55.96904754638672 -102.37499999999997 L 55.770999908447266 -102.53299713134763 L 54.79899978637695 -102.91500091552732 L 53.757999420166016 -102.99299621582028 L 52.7400016784668 -102.76000213623044 M 43.92300033569336 -49.01100158691405 L 45.165000915527344 -46.26399993896484 L 47.12200164794922 -43.980998992919915 L 49.637001037597656 -42.3479995727539 L 52.505001068115234 -41.498001098632805 L 55.494998931884766 -41.498001098632805 L 58.362998962402344 -42.3479995727539 L 60.87799835205078 -43.980998992919915 L 62.834999084472656 -46.26399993896484 L 64.0770034790039 -49.01100158691405 L 64.09709930419922 -49.15200042724608 L 64.50299835205078 -51.999999999999986 L 64.0770034790039 -54.98899841308592 L 62.834999084472656 -57.73600006103514 L 60.87799835205078 -60.019001007080064 L 58.362998962402344 -61.65200042724608 L 57.61145782470703 -61.874999999999986 L 55.494998931884766 -62.50299835205077 L 52.505001068115234 -62.50299835205077 L 50.38854217529297 -61.874999999999986 L 49.637001037597656 -61.65200042724608 L 47.12200164794922 -60.019001007080064 L 45.165000915527344 -57.73600006103514 L 43.92300033569336 -54.98899841308592 L 43.49800109863281 -51.999999999999986 L 43.902950286865234 -49.15200042724608 L 43.92300033569336 -49.01100158691405 M -47.99800109863281 -82.00299835205077 L -65.53600311279297 -82.00299835205077 L -84.125 -82.00299835205077 L -99.00299835205078 -82.00299835205077 L -99.00299835205078 -65.53600311279295 L -99.00299835205078 -60.4980010986328 L -84.125 -60.4980010986328 L -65.53600311279297 -60.4980010986328 L -47.99800109863281 -60.4980010986328 L -47.99800109863281 -61.874999999999986 L -47.99800109863281 -65.53600311279295 L -47.99800109863281 -82.00299835205077 M -10.998000144958496 61.9980010986328 L -23.003000259399414 61.9980010986328 L -23.003000259399414 74.00299835205077 L -10.998000144958496 74.00299835205077 L -10.998000144958496 61.9980010986328 z" fill="none" stroke="rgb(255,0,0)" stroke-width="0.001mm" />
</svg>